<svg id="Capa_1" fill="#22AA86" enable-background="new 0 0 450.762 450.762" height="512" viewBox="0 0 450.762 450.762" width="512" xmlns="http://www.w3.org/2000/svg"><path d="m5.999 191.099h58.258v234.282c0 3.314 2.686 6 6 6h310.249c3.314 0 6-2.686 6-6v-234.282h58.257c3.314-.001 5.999-2.688 5.999-6.001 0-1.918-.918-3.72-2.468-4.849l-219.382-159.719c-2.105-1.532-4.957-1.532-7.062 0l-219.382 159.719c-2.679 1.951-3.269 5.704-1.318 8.382 1.129 1.551 2.931 2.468 4.849 2.468zm219.382-158.296 200.946 146.3h-45.821c-3.314 0-6 2.686-6 6v234.278h-298.249v-234.282c0-3.314-2.686-6-6-6h-45.822z"/><path d="m121.069 325.572c6.039 19.676 24.23 33.093 44.812 33.052 1.224 0 2.459-.047 3.7-.142 10.625-.767 20.67-5.137 28.475-12.386l20.745 17.754.01 35.027c0 3.314 2.686 6 6 6 3.314 0 6-2.686 6-6l-.009-33.276c.596-.235 1.15-.565 1.64-.977l21.235-18.058c7.592 6.825 17.189 11.011 27.356 11.934 1.389.12 2.769.18 4.139.179 20.355-.009 38.417-13.051 44.829-32.37l20.946-63.614c1.037-3.147-.674-6.539-3.822-7.576-.888-.293-1.833-.373-2.758-.236l-66.143 9.816c-25.764 3.777-43.588 27.724-39.811 53.488 1.012 6.903 3.543 13.495 7.411 19.301l-15.03 12.782-.029-104.217c23.719-3.422 40.173-25.423 36.751-49.142-.839-5.818-2.852-11.404-5.915-16.42l-31.746-51.954c-1.085-1.776-3.013-2.863-5.094-2.872h-.026c-2.072 0-3.998 1.07-5.093 2.829l-32.128 51.6c-12.706 20.329-6.526 47.109 13.802 59.815 5.299 3.312 11.251 5.441 17.449 6.241l.028 101.9-13.012-11.135c14.164-21.843 7.938-51.033-13.905-65.197-5.491-3.561-11.663-5.939-18.124-6.983l-66.121-10.662c-3.271-.527-6.351 1.697-6.878 4.969-.149.923-.08 1.868.201 2.759zm197.543-3.053c-6.066 18.44-25.932 28.471-44.372 22.405-4.126-1.357-7.964-3.467-11.321-6.223l69.952-59.488zm-68.576-14.083v-.031c1.266-16.32 13.713-29.562 29.923-31.836l45.422-6.74-70.343 59.822c-3.893-6.355-5.646-13.79-5.002-21.215zm-3.455-82.955c-4.352 4.269-9.847 7.187-15.821 8.4l-.022-80.884 20.6 33.717c7.579 12.466 5.611 28.504-4.757 38.767zm-44.5-.211-.022-.022c-10.381-10.304-12.197-26.441-4.367-38.795l21.051-33.811.022 81.381c-6.332-1.123-12.16-4.18-16.684-8.751zm-33.378 121.244h-.031c-16.316 1.323-31.354-8.883-36.152-24.533l-13.813-43.792 70.158 60.041c-5.662 4.846-12.728 7.75-20.162 8.284zm32.578-37.664c.478 7.046-1.168 14.073-4.725 20.174l-69.767-59.706 45.013 7.258c16.113 2.637 28.309 15.989 29.479 32.274z"/></svg>